<?xml version="1.0" standalone="no"?>
<!DOCTYPE svg PUBLIC "-//W3C//DTD SVG 20010904//EN"
 "http://www.w3.org/TR/2001/REC-SVG-20010904/DTD/svg10.dtd">
<svg version="1.0" xmlns="http://www.w3.org/2000/svg"
 width="1024.000000pt" height="751.000000pt" viewBox="0 0 1024.000000 751.000000"
 preserveAspectRatio="xMidYMid meet">

<g transform="translate(0.000000,751.000000) scale(0.100000,-0.100000)"
fill="#000000" stroke="none">
<path d="M1270 6293 c0 -3 13 -27 29 -52 16 -25 99 -167 184 -316 85 -148 259
-452 387 -675 128 -223 310 -540 405 -705 94 -165 206 -358 247 -430 76 -131
205 -356 524 -912 95 -165 179 -312 188 -325 14 -22 13 -27 -26 -93 -52 -90
-201 -347 -341 -590 -61 -104 -124 -215 -142 -245 -18 -30 -84 -145 -147 -255
-64 -110 -174 -301 -245 -425 -71 -124 -148 -258 -171 -297 l-41 -73 663 0
663 0 70 123 c38 67 113 196 165 287 290 503 380 660 461 800 50 85 116 200
147 255 50 88 347 604 435 755 38 66 201 348 300 520 105 181 217 376 303 525
41 72 133 231 203 355 242 427 328 550 511 731 346 343 741 547 1228 636 129
23 171 26 375 27 209 0 244 -3 377 -27 143 -27 328 -77 432 -119 28 -11 62
-24 74 -29 l24 -9 -23 -38 c-20 -33 -71 -121 -103 -177 -77 -133 -79 -136 -95
-129 -67 31 -257 87 -356 106 -159 30 -454 32 -620 5 -498 -82 -923 -342
-1231 -752 -29 -38 -105 -162 -170 -275 -64 -113 -133 -232 -152 -265 -19 -33
-46 -80 -60 -104 -14 -25 -38 -68 -55 -95 -16 -28 -82 -141 -145 -251 -193
-336 -216 -375 -308 -535 -50 -85 -111 -192 -137 -236 l-47 -81 35 -114 c59
-186 161 -409 272 -588 153 -247 331 -458 543 -642 391 -341 860 -560 1355
-635 159 -24 503 -29 674 -10 269 30 547 108 796 222 53 24 305 162 328 178
17 13 11 25 -74 172 -50 88 -169 294 -264 459 -95 165 -183 318 -196 340 -12
22 -23 41 -24 43 -1 1 -31 -15 -66 -37 -155 -94 -300 -154 -469 -197 -129 -32
-383 -44 -508 -24 -411 65 -746 258 -998 575 -124 155 -228 360 -278 544 l-22
84 -99 -169 c-54 -93 -111 -193 -127 -221 l-29 -53 44 -87 c93 -185 212 -349
367 -504 264 -267 590 -444 966 -526 121 -26 143 -28 364 -28 222 0 242 2 365
29 107 23 242 65 326 100 11 5 27 -15 64 -81 27 -48 71 -124 97 -168 26 -44
48 -83 48 -86 0 -18 -258 -110 -400 -142 -172 -40 -229 -47 -415 -53 -280 -10
-507 19 -755 98 -596 190 -1095 621 -1383 1195 -58 114 -117 256 -117 279 0
10 35 76 77 148 42 72 128 221 191 331 63 110 129 225 147 255 115 199 235
406 352 610 177 308 217 364 348 495 222 223 505 370 810 421 133 23 377 23
506 1 174 -30 397 -116 542 -209 27 -17 52 -27 56 -22 5 5 53 88 108 184 55
96 144 252 198 345 54 94 130 226 170 295 39 69 78 135 85 147 8 12 12 24 10
26 -50 44 -360 199 -502 251 -361 134 -766 189 -1148 156 -704 -61 -1345 -397
-1805 -945 -123 -147 -209 -281 -421 -650 -185 -324 -244 -427 -336 -585 -30
-52 -125 -216 -210 -365 -85 -148 -181 -315 -213 -370 -90 -155 -162 -281
-225 -390 -66 -117 -261 -456 -345 -600 -96 -165 -125 -215 -185 -320 -31 -55
-123 -215 -205 -355 -81 -140 -170 -294 -197 -343 l-50 -87 -224 0 -225 0 17
33 c9 17 51 91 92 162 72 124 116 201 235 408 30 50 95 164 146 252 318 550
412 717 408 728 -3 7 -76 136 -162 287 -87 151 -184 320 -215 375 -74 129
-419 731 -545 950 -54 94 -175 305 -270 470 -157 275 -289 503 -480 835 -40
69 -70 128 -68 133 2 4 100 7 217 7 159 0 216 -3 224 -12 5 -7 54 -89 107
-183 54 -93 123 -213 153 -265 30 -52 80 -140 112 -195 58 -102 224 -391 365
-635 189 -328 364 -632 571 -992 157 -275 225 -384 232 -375 5 6 63 107 130
222 66 116 162 282 212 370 78 135 274 475 495 860 29 50 105 182 170 295 65
113 143 250 175 305 31 55 101 177 155 270 159 274 405 707 405 711 0 2 -96 4
-214 4 l-214 0 -115 -197 c-63 -109 -175 -304 -249 -433 -74 -129 -184 -320
-245 -425 -326 -565 -515 -894 -621 -1077 -46 -82 -87 -148 -91 -148 -3 0 -19
24 -35 53 -16 28 -48 84 -71 122 -42 70 -188 324 -470 815 -84 146 -213 371
-287 500 -74 129 -197 343 -272 475 -76 132 -149 257 -162 278 l-24 37 -660 0
c-363 0 -660 -3 -660 -7z"/>
</g>
</svg>
